<svg xmlns="http://www.w3.org/2000/svg" viewBox="0 130.2 595.3 334.8" width="100%" height="100%" role="img" aria-label="تحلیل فروش فروشگاه آنلاین">
  <rect y="130.2" width="595.3" height="334.8" fill="#f7faf9" />
  <circle cx="511.9" cy="179.3" r="71.4" fill="#00a388" opacity="0.09" />
  <circle cx="71.4" cy="417.4" r="53.6" fill="#2579ef" opacity="0.08" />
  <g fill="#cbd5e1">
    <circle cx="111.6" cy="197.2" r="3" />
    <circle cx="132.4" cy="197.2" r="3" />
    <circle cx="153.3" cy="197.2" r="3" />
    <circle cx="111.6" cy="216.5" r="3" />
    <circle cx="132.4" cy="216.5" r="3" />
    <circle cx="153.3" cy="216.5" r="3" />
  </g>
  <path d="M199.4,262.7l3.7,8.9l8.9,3.7l-8.9,3.7l-3.7,8.9l-3.7-8.9l-8.9-3.7l8.9-3.7L199.4,262.7z" fill="#f59e0b" />
  <path d="M449.4,222.5l3,7.4l7.4,3l-7.4,3l-3,7.4l-3-7.4l-7.4-3l7.4-3L449.4,222.5z" fill="#2579ef" />
  <path d="M395.9,377.3l3,7.4l7.4,3l-7.4,3l-3,7.4l-3-7.4l-7.4-3l7.4-3L395.9,377.3z" fill="#00a388" />
  <ellipse cx="297.6" cy="436.8" rx="200.9" ry="11.9" fill="#0f172a" opacity="0.07" />
  <g>
    <rect x="101.2" y="379.2" width="77.4" height="17.9" fill="#f59e0b" />
    <rect x="101.2" y="387.7" width="77.4" height="25.2" fill="#f59e0b" />
    <ellipse cx="139.9" cy="412.8" rx="38.7" ry="10.4" fill="#d97706" />
    <ellipse cx="139.9" cy="381.7" rx="38.7" ry="10.4" fill="#fbbf24" />
    <rect x="101.2" y="365.4" width="77.4" height="17.9" fill="#f59e0b" />
    <ellipse cx="139.9" cy="410.4" rx="38.7" ry="10.4" fill="#f59e0b" />
    <ellipse cx="139.9" cy="398.4" rx="38.7" ry="10.4" fill="#fbbf24" />
    <ellipse cx="139.9" cy="395.4" rx="38.7" ry="10.4" fill="#f59e0b" />
    <ellipse cx="139.9" cy="382.4" rx="38.7" ry="10.4" fill="#fbbf24" />
    <ellipse cx="139.9" cy="379.4" rx="38.7" ry="10.4" fill="#f59e0b" />
    <ellipse cx="139.9" cy="365.4" rx="38.7" ry="10.4" fill="#fbbf24" />
  </g>
  <g>
    <path d="M242.6,183.8h110.1c12.3,0,22.3,10,22.3,22.3V407c0,12.3-10,22.3-22.3,22.3H242.6c-12.3,0-22.3-10-22.3-22.3V206.1C220.3,193.8,230.2,183.8,242.6,183.8z" fill="#16233a" />
    <path d="M245.6,194.2h104.2c8.2,0,14.9,6.7,14.9,14.9v195c0,8.2-6.7,14.9-14.9,14.9H245.6c-8.2,0-14.9-6.7-14.9-14.9v-195C230.7,200.9,237.3,194.2,245.6,194.2z" fill="#ffffff" />
    <path d="M276.1,200.2h43.2c2.1,0,3.7,1.7,3.7,3.7l0,0c0,2.1-1.7,3.7-3.7,3.7h-43.2c-2.1,0-3.7-1.7-3.7-3.7l0,0C272.3,201.8,274,200.2,276.1,200.2z" fill="#16233a" />
    <path d="M247.8,216.5h56.6c2.9,0,5.2,2.3,5.2,5.2l0,0c0,2.9-2.3,5.2-5.2,5.2h-56.6c-2.9,0-5.2-2.3-5.2-5.2l0,0C242.6,218.9,244.9,216.5,247.8,216.5z" fill="#00a388" />
    <circle cx="352.7" cy="221.7" r="6.7" fill="#f59e0b" />
    <path d="M242.6,329.6l26.8-17.9l25.3,6l25.3-28.3l23.8,4.5l11.9-23.8" fill="none" stroke="#00a388" stroke-width="4.4646" stroke-linecap="round" stroke-linejoin="round" stroke-miterlimit="2.9764" />
    <circle cx="355.7" cy="270.1" r="6" fill="#00a388" stroke="#ffffff" stroke-width="2.2323" stroke-miterlimit="2.9764" />
    <g>
      <path d="M246.3,353.4h7.4c2.1,0,3.7,1.7,3.7,3.7V384c0,2.1-1.7,3.7-3.7,3.7h-7.4c-2.1,0-3.7-1.7-3.7-3.7v-26.8C242.6,355.1,244.2,353.4,246.3,353.4z" fill="#2579ef" opacity="0.35" />
      <path d="M267.1,343h7.4c2.1,0,3.7,1.7,3.7,3.7V384c0,2.1-1.7,3.7-3.7,3.7h-7.4c-2.1,0-3.7-1.7-3.7-3.7v-37.2C263.4,344.7,265.1,343,267.1,343z" fill="#2579ef" opacity="0.5" />
      <path d="M288,349h7.4c2.1,0,3.7,1.7,3.7,3.7V384c0,2.1-1.7,3.7-3.7,3.7H288c-2.1,0-3.7-1.7-3.7-3.7v-31.3C284.2,350.6,285.9,349,288,349z" fill="#2579ef" opacity="0.65" />
      <path d="M308.8,332.6h7.4c2.1,0,3.7,1.7,3.7,3.7V384c0,2.1-1.7,3.7-3.7,3.7h-7.4c-2.1,0-3.7-1.7-3.7-3.7v-47.6C305.1,334.3,306.7,332.6,308.8,332.6z" fill="#2579ef" opacity="0.8" />
      <path d="M329.6,322.2h7.4c2.1,0,3.7,1.7,3.7,3.7v58c0,2.1-1.7,3.7-3.7,3.7h-7.4c-2.1,0-3.7-1.7-3.7-3.7v-58C325.9,323.9,327.6,322.2,329.6,322.2z" fill="#2579ef" />
    </g>
  </g>
  <g transform="translate(516, 138) rotate(12)">
    <path d="M-81.4,141.5l18.9,18.9c2.3,2.3,2.3,6.1,0,8.4l0,0c-2.3,2.3-6.1,2.3-8.4,0l-18.9-18.9c-2.3,2.3-2.3,6.1,0,8.4l0,0C-87.5,139.2-83.8,139.2-81.4,141.5z" fill="#16233a" />
    <circle cx="-109.4" cy="120.3" r="32.7" fill="#ffffff" fill-opacity="0.55" stroke="#2579ef" stroke-width="8.185" stroke-miterlimit="2.9764" />
    <path d="M-125.8,124.7l10.4-10.4l8.9,8.9l7.4-7.4" fill="none" stroke="#00a388" stroke-width="4.4646" stroke-linecap="round" stroke-linejoin="round" stroke-miterlimit="2.9764" />
  </g>
  <g>
    <path d="M416.7,329.6h95.2L500,427.9h-71.4L416.7,329.6z" fill="#00a388" />
    <path d="M416.7,329.6h95.2l-3,17.9h-89.3L416.7,329.6z" fill="#00856f" />
    <path d="M440.5,329.6c0-25.3,8.9-38.7,23.8-38.7c14.9,0,23.8,13.4,23.8,38.7" fill="none" stroke="#16233a" stroke-width="6.6969" stroke-linecap="round" stroke-miterlimit="2.9764" />
  </g>
</svg>
