<svg xmlns="http://www.w3.org/2000/svg" viewBox="0 0 800 450" width="100%" height="100%" role="img" aria-label="پیش‌بینی فروش با میانگین متحرک">
  <rect width="800" height="450" fill="#f7faf9" />
  <circle cx="688" cy="66" r="96" fill="#00a388" opacity="0.09" />
  <circle cx="96" cy="386" r="72" fill="#2579ef" opacity="0.08" />
  <g fill="#cbd5e1">
    <circle cx="150" cy="90" r="4" />
    <circle cx="178" cy="90" r="4" />
    <circle cx="206" cy="90" r="4" />
    <circle cx="150" cy="116" r="4" />
    <circle cx="178" cy="116" r="4" />
    <circle cx="206" cy="116" r="4" />
  </g>
  <path d="M268 178 l5 12 12 5 -12 5 -5 12 -5 -12 -12 -5 12 -5 Z" fill="#f59e0b" />
  <path d="M604 124 l4 10 10 4 -10 4 -4 10 -4 -10 -10 -4 10 -4 Z" fill="#2579ef" />
  <path d="M532 332 l4 10 10 4 -10 4 -4 10 -4 -10 -10 -4 10 -4 Z" fill="#00a388" />
  <ellipse cx="400" cy="412" rx="270" ry="16" fill="#0f172a" opacity="0.07" />
  <g>
    <rect x="296" y="72" width="208" height="330" rx="30" fill="#16233a" />
    <rect x="310" y="86" width="180" height="302" rx="20" fill="#ffffff" />
    <rect x="366" y="94" width="68" height="10" rx="5" fill="#16233a" />
    <path d="M326 268 L 362 250 L 396 256 L 430 224 L 462 230 L 478 196" fill="none" stroke="#cbd5e1" stroke-width="5" stroke-linecap="round" stroke-linejoin="round" />
    <path d="M326 276 L 362 262 L 396 264 L 430 240 L 462 242 L 478 218" fill="none" stroke="#00a388" stroke-width="6" stroke-linecap="round" stroke-linejoin="round" />
    <circle cx="478" cy="218" r="8" fill="#00a388" stroke="#ffffff" stroke-width="3" />
    <path d="M462 190 L478 218 L494 190" fill="none" stroke="#2579ef" stroke-width="6" stroke-linecap="round" stroke-linejoin="round" />
    <g>
      <rect x="326" y="300" width="20" height="46" rx="5" fill="#2579ef" opacity="0.35" />
      <rect x="354" y="286" width="20" height="60" rx="5" fill="#2579ef" opacity="0.5" />
      <rect x="382" y="294" width="20" height="52" rx="5" fill="#2579ef" opacity="0.65" />
      <rect x="410" y="272" width="20" height="74" rx="5" fill="#2579ef" opacity="0.8" />
      <rect x="438" y="258" width="20" height="88" rx="5" fill="#2579ef" />
    </g>
  </g>
  <g>
    <ellipse cx="610" cy="384" rx="52" ry="14" fill="#d97706" />
    <rect x="558" y="360" width="104" height="24" fill="#f59e0b" />
    <ellipse cx="610" cy="360" rx="52" ry="14" fill="#fbbf24" />
  </g>
  <g>
    <path d="M150 300 L230 300 L222 380 L158 380 Z" fill="#00a388" />
    <path d="M150 300 L230 300 L228 318 L152 318 Z" fill="#00856f" />
    <circle cx="190" cy="270" r="18" fill="#f59e0b" stroke="#ffffff" stroke-width="4" />
  </g>
</svg>
